{
  "asset": {
    "version": "2.0"
  },
  "buffers": [
    {
      "uri": "mesh-buffer-views-interleaved-padding-begin-end.bin",
      "byteLength": 56
    }
  ],
  "bufferViews": [
    {
      "buffer": 0,
      "byteOffset": 0,
      "byteLength": 56,
      "byteStride": 28,
      "target": 34962
    }
  ],
  "accessors": [
    {
      "bufferView": 0,
      "byteOffset": 16,
      "componentType": 5126,
      "count": 2,
      "type": "VEC2"
    },
    {
      "bufferView": 0,
      "byteOffset": 4,
      "componentType": 5126,
      "count": 2,
      "type": "VEC3",
      "min": [1, 2, 3],
      "max": [4, 5, 6]
    }
  ],
  "meshes": [
    {
      "primitives": [
        {
          "attributes": {
            "TEXCOORD_0": 0,
            "POSITION": 1
          },
          "mode": 2
        }
      ]
    }
  ]
}
