{
  "asset": {
    "version": "2.0"
  },
  "buffers": [
    {
      "uri": "mesh-buffer-views-interleaved-padding-middle.bin",
      "byteLength": 56
    }
  ],
  "bufferViews": [
    {
      "buffer": 0,
      "byteOffset": 0,
      "byteLength": 8,
      "byteStride": 4,
      "target": 34962
    },
    {
      "buffer": 0,
      "byteOffset": 8,
      "byteLength": 48,
      "byteStride": 24,
      "target": 34962
    }
  ],
  "accessors": [
    {
      "bufferView": 1,
      "byteOffset": 16,
      "componentType": 5126,
      "count": 2,
      "type": "VEC2"
    },
    {
      "bufferView": 1,
      "componentType": 5126,
      "count": 2,
      "type": "VEC3",
      "min": [1, 2, 3],
      "max": [4, 5, 6]
    },
    {
      "bufferView": 1,
      "componentType": 5126,
      "count": 2,
      "type": "VEC3"
    },
    {
      "bufferView": 0,
      "componentType": 5121,
      "normalized": true,
      "count": 2,
      "type": "VEC4"
    }
  ],
  "meshes": [
    {
      "primitives": [
        {
          "attributes": {
            "TEXCOORD_0": 0,
            "POSITION": 1,
            "NORMAL": 2,
            "COLOR_0": 3
          },
          "mode": 3
        }
      ]
    }
  ]
}
