{
  "asset": {
    "version": "2.0"
  },
  "buffers": [
    {
      "uri": "mesh-multiple.bin",
      "byteLength": 48
    }
  ],
  "bufferViews": [
    {
      "buffer": 0,
      "byteOffset": 0,
      "byteLength": 6,
      "target": 34963
    },
    {
      "buffer": 0,
      "byteOffset": 8,
      "byteLength": 24,
      "byteStride": 12,
      "target": 34962
    },
    {
      "buffer": 0,
      "byteOffset": 32,
      "byteLength": 16,
      "byteStride": 8,
      "target": 34962
    }
  ],
  "accessors": [
    {
      "bufferView": 0,
      "componentType": 5123,
      "count": 3,
      "type": "SCALAR"
    },
    {
      "bufferView": 1,
      "componentType": 5126,
      "count": 2,
      "type": "VEC3",
      "min": [1, 2, 3],
      "max": [4, 5, 6]
    },
    {
      "bufferView": 2,
      "componentType": 5123,
      "normalized": true,
      "count": 2,
      "type": "VEC4"
    }
  ],
  "meshes": [
    {
      "primitives": [
        {
          "indices": 0,
          "attributes": {
            "POSITION": 1
          },
          "mode": 6
        }
      ]
    },
    {
      "primitives": [
        {
          "attributes": {
            "COLOR_0": 2
          },
          "mode": 1
        }
      ]
    }
  ]
}
