{
  "asset": {
    "version": "2.0"
  },
  "extensionsUsed": [
    "KHR_mesh_quantization"
  ],
  "extensionsRequired": [
    "KHR_mesh_quantization"
  ],
  "buffers": [
    {
      "uri": "mesh-attribute-position-quantized-b-normalized.bin",
      "byteLength": 32
    }
  ],
  "bufferViews": [
    {
      "buffer": 0,
      "byteOffset": 0,
      "byteLength": 32,
      "byteStride": 32,
      "target": 34962
    }
  ],
  "accessors": [
    {
      "bufferView": 0,
      "componentType": 5120,
      "normalized": true,
      "count": 1,
      "type": "VEC3",
      "min": [0, 0, 0],
      "max": [0, 0, 0]
    }
  ],
  "meshes": [
    {
      "primitives": [
        {
          "attributes": {
            "POSITION": 0
          },
          "mode": 2
        }
      ]
    }
  ]
}
