{
    "asset" : {
        "generator" : "Khronos glTF Blender I/O v1.6.16",
        "version" : "2.0"
    },
    "scene" : 0,
    "scenes" : [
        {
            "name" : "Scene",
            "nodes" : [
                0,
                4,
                8
            ]
        }
    ],
    "nodes" : [
        {
            "mesh" : 0,
            "name" : "Plane",
            "scale" : [
                1.8170055150985718,
                1,
                1
            ]
        },
        {
            "name" : "Node_4"
        },
        {
            "children" : [
                1
            ],
            "name" : "Node_3",
            "rotation" : [
                -0.7071068286895752,
                0,
                0,
                0.7071068286895752
            ],
            "translation" : [
                0,
                1,
                0
            ]
        },
        {
            "mesh" : 1,
            "name" : "Mesh_2",
            "skin" : 0
        },
        {
            "children" : [
                3,
                2
            ],
            "name" : "Armature_2",
            "translation" : [
                1.5267221927642822,
                0,
                0
            ]
        },
        {
            "name" : "Node_2"
        },
        {
            "children" : [
                5
            ],
            "name" : "Node_1",
            "rotation" : [
                -0.7071068286895752,
                0,
                0,
                0.7071068286895752
            ],
            "translation" : [
                0,
                1,
                0
            ]
        },
        {
            "mesh" : 2,
            "name" : "Mesh_1",
            "skin" : 1
        },
        {
            "children" : [
                7,
                6
            ],
            "name" : "Armature_1"
        }
    ],
    "meshes" : [
        {
            "name" : "Plane",
            "primitives" : [
                {
                    "attributes" : {
                        "POSITION" : 0,
                        "NORMAL" : 1,
                        "TEXCOORD_0" : 2
                    },
                    "indices" : 3
                }
            ]
        },
        {
            "name" : "Mesh_2",
            "primitives" : [
                {
                    "attributes" : {
                        "POSITION" : 4,
                        "NORMAL" : 5,
                        "JOINTS_0" : 6,
                        "WEIGHTS_0" : 7
                    },
                    "indices" : 8
                }
            ]
        },
        {
            "name" : "Mesh_1",
            "primitives" : [
                {
                    "attributes" : {
                        "POSITION" : 10,
                        "NORMAL" : 11,
                        "JOINTS_0" : 12,
                        "WEIGHTS_0" : 13
                    },
                    "indices" : 8
                }
            ]
        }
    ],
    "skins" : [
        {
            "inverseBindMatrices" : 9,
            "joints" : [
                2,
                1
            ],
            "name" : "Armature_2"
        },
        {
            "inverseBindMatrices" : 14,
            "joints" : [
                6,
                5
            ],
            "name" : "Armature_1"
        }
    ],
    "accessors" : [
        {
            "bufferView" : 0,
            "componentType" : 5126,
            "count" : 4,
            "max" : [
                1,
                0,
                1
            ],
            "min" : [
                -1,
                0,
                -1
            ],
            "type" : "VEC3"
        },
        {
            "bufferView" : 1,
            "componentType" : 5126,
            "count" : 4,
            "type" : "VEC3"
        },
        {
            "bufferView" : 2,
            "componentType" : 5126,
            "count" : 4,
            "type" : "VEC2"
        },
        {
            "bufferView" : 3,
            "componentType" : 5123,
            "count" : 6,
            "type" : "SCALAR"
        },
        {
            "bufferView" : 4,
            "componentType" : 5126,
            "count" : 10,
            "max" : [
                2.0267221927642822,
                2,
                0
            ],
            "min" : [
                1.0267221927642822,
                0,
                0
            ],
            "type" : "VEC3"
        },
        {
            "bufferView" : 5,
            "componentType" : 5126,
            "count" : 10,
            "type" : "VEC3"
        },
        {
            "bufferView" : 6,
            "componentType" : 5121,
            "count" : 10,
            "type" : "VEC4"
        },
        {
            "bufferView" : 7,
            "componentType" : 5126,
            "count" : 10,
            "type" : "VEC4"
        },
        {
            "bufferView" : 8,
            "componentType" : 5123,
            "count" : 24,
            "type" : "SCALAR"
        },
        {
            "bufferView" : 9,
            "componentType" : 5126,
            "count" : 2,
            "type" : "MAT4"
        },
        {
            "bufferView" : 10,
            "componentType" : 5126,
            "count" : 10,
            "max" : [
                0.5,
                2,
                0
            ],
            "min" : [
                -0.5,
                0,
                0
            ],
            "type" : "VEC3"
        },
        {
            "bufferView" : 11,
            "componentType" : 5126,
            "count" : 10,
            "type" : "VEC3"
        },
        {
            "bufferView" : 12,
            "componentType" : 5121,
            "count" : 10,
            "type" : "VEC4"
        },
        {
            "bufferView" : 13,
            "componentType" : 5126,
            "count" : 10,
            "type" : "VEC4"
        },
        {
            "bufferView" : 14,
            "componentType" : 5126,
            "count" : 2,
            "type" : "MAT4"
        }
    ],
    "bufferViews" : [
        {
            "buffer" : 0,
            "byteLength" : 48,
            "byteOffset" : 0
        },
        {
            "buffer" : 0,
            "byteLength" : 48,
            "byteOffset" : 48
        },
        {
            "buffer" : 0,
            "byteLength" : 32,
            "byteOffset" : 96
        },
        {
            "buffer" : 0,
            "byteLength" : 12,
            "byteOffset" : 128
        },
        {
            "buffer" : 0,
            "byteLength" : 120,
            "byteOffset" : 140
        },
        {
            "buffer" : 0,
            "byteLength" : 120,
            "byteOffset" : 260
        },
        {
            "buffer" : 0,
            "byteLength" : 40,
            "byteOffset" : 380
        },
        {
            "buffer" : 0,
            "byteLength" : 160,
            "byteOffset" : 420
        },
        {
            "buffer" : 0,
            "byteLength" : 48,
            "byteOffset" : 580
        },
        {
            "buffer" : 0,
            "byteLength" : 128,
            "byteOffset" : 628
        },
        {
            "buffer" : 0,
            "byteLength" : 120,
            "byteOffset" : 756
        },
        {
            "buffer" : 0,
            "byteLength" : 120,
            "byteOffset" : 876
        },
        {
            "buffer" : 0,
            "byteLength" : 40,
            "byteOffset" : 996
        },
        {
            "buffer" : 0,
            "byteLength" : 160,
            "byteOffset" : 1036
        },
        {
            "buffer" : 0,
            "byteLength" : 128,
            "byteOffset" : 1196
        }
    ],
    "buffers" : [
        {
            "byteLength" : 1324,
            "uri" : "data:application/octet-stream;base64,"
        }
    ]
}
