{
    "accessors" : [
        {
            "bufferView" : 0, 
            "componentType" : 5121, 
            "count" : 3, 
            "max" : [
                2
            ], 
            "min" : [
                0
            ], 
            "type" : "SCALAR"
        }, 
        {
            "bufferView" : 1, 
            "componentType" : 5126, 
            "count" : 3, 
            "max" : [
                0.6856166124343872, 
                0.291010320186615, 
                1.0295608043670654
            ], 
            "min" : [
                -0.5848886370658875, 
                -0.2770037055015564, 
                -1.0624043941497803
            ], 
            "type" : "VEC3"
        }, 
        {
            "bufferView" : 2, 
            "componentType" : 5126, 
            "count" : 3, 
            "max" : [
                0.4390820562839508, 
                0.8961530327796936, 
                -0.06416241824626923
            ], 
            "min" : [
                0.4390820562839508, 
                0.8961530327796936, 
                -0.06416241824626923
            ], 
            "type" : "VEC3"
        }
    ], 
    "asset" : {
        "generator" : "Khronos Blender glTF 2.0 exporter", 
        "version" : "2.0"
    }, 
    "bufferViews" : [
        {
            "buffer" : 0, 
            "byteLength" : 3, 
            "byteOffset" : 0, 
            "target" : 34963
        }, 
        {
            "buffer" : 0, 
            "byteLength" : 36, 
            "byteOffset" : 4, 
            "target" : 34962
        }, 
        {
            "buffer" : 0, 
            "byteLength" : 36, 
            "byteOffset" : 40, 
            "target" : 34962
        }
    ], 
    "buffers" : [
        {
            "byteLength" : 76, 
            "uri" : "material.bin"
        }
    ], 
    "extensionsRequired" : [
        "KHR_materials_cmnBlinnPhong"
    ], 
    "extensionsUsed" : [
        "KHR_materials_cmnBlinnPhong"
    ], 
    "images" : [
        {
            "uri" : "texture.png"
        }
    ], 
    "materials" : [
        {
            "emissiveFactor" : [
                0.0, 
                0.0, 
                0.0
            ], 
            "extensions" : {
                "KHR_materials_cmnBlinnPhong" : {
                    "diffuseFactor" : [
                        0.15896087884902954, 
                        0.33716365694999695, 
                        0.799102783203125, 
                        1.0
                    ], 
                    "diffuseTexture" : {
                        "index" : 0
                    }, 
                    "shininessFactor" : 12.298039215686275, 
                    "specularFactor" : [
                        0.09469437610159526, 
                        0.41721853613853455, 
                        0.37045803467222527
                    ], 
                    "specularShininessTexture" : {
                        "index" : 0
                    }
                }
            }, 
            "name" : "awesomeMaterial"
        }, 
        {
            "emissiveFactor" : [
                0.0, 
                0.0, 
                0.0
            ], 
            "extensions" : {
                "KHR_materials_cmnBlinnPhong" : {
                    "diffuseFactor" : [
                        0.12716870497418498, 
                        0.26973092957930156, 
                        0.6392822360885475, 
                        1.0
                    ], 
                    "shininessFactor" : 12.298039215686275, 
                    "specularFactor" : [
                        0.11348294466733932, 
                        0.5, 
                        0.44396162033081055
                    ]
                }
            }, 
            "name" : "secondMaterial"
        }
    ], 
    "meshes" : [
        {
            "name" : "Mesh", 
            "primitives" : [
                {
                    "attributes" : {
                        "NORMAL" : 2, 
                        "POSITION" : 1
                    }, 
                    "indices" : 0, 
                    "material" : 0
                }
            ]
        }
    ], 
    "nodes" : [
        {
            "mesh" : 0, 
            "name" : "Mesh"
        }, 
        {
            "name" : "Sun", 
            "rotation" : [
                -0.17890803515911102, 
                -0.10653585195541382, 
                -0.2391258329153061, 
                0.9483992457389832
            ], 
            "translation" : [
                1.6413490772247314, 
                1.5866162776947021, 
                -1.3488967418670654
            ]
        }
    ], 
    "samplers" : [
        {}
    ], 
    "scene" : 0, 
    "scenes" : [
        {
            "name" : "Scene", 
            "nodes" : [
                1, 
                0
            ]
        }
    ], 
    "textures" : [
        {
            "sampler" : 0, 
            "source" : 0
        }
    ]
}
