{
    "accessors" : [
        {
            "bufferView" : 0,
            "componentType" : 5126,
            "count" : 3,
            "type" : "VEC3",
            "min" : [ 1.0, 2.0, 3.0 ],
            "max" : [ 7.0, 8.0, 9.0 ]
        },
        {
            "bufferView" : 1,
            "componentType" : 5121,
            "count" : 3,
            "type" : "SCALAR"
        },
        {
            "bufferView" : 2,
            "componentType" : 5126,
            "count" : 4,
            "type" : "VEC3",
            "min" : [ 1.9, 11.0, 2.1 ],
            "max" : [ 16.0, 20.0, 18.0 ]
        },
        {
            "bufferView" : 3,
            "componentType" : 5123,
            "count" : 4,
            "type" : "SCALAR"
        },
        {
            "bufferView" : 4,
            "componentType" : 5126,
            "count" : 3,
            "type" : "VEC3",
            "min" : [ 1.1, 1.2, 1.4 ],
            "max" : [ 1.8, 1.9, 2.0]
        },
        {
            "bufferView" : 5,
            "componentType" : 5125,
            "count" : 2,
            "type" : "SCALAR"
        },
        {
            "bufferView" : 6,
            "componentType" : 5126,
            "count" : 3,
            "type" : "VEC3",
            "min" : [ 2.1, 2.2, 2.4 ],
            "max" : [ 2.8, 2.9, 3.0 ]
        },
        {
            "bufferView" : 7,
            "componentType" : 5125,
            "count" : 3,
            "type" : "SCALAR"
        },
        {
            "bufferView" : 8,
            "componentType" : 5126,
            "count" : 4,
            "type" : "VEC3",
            "min" : [ 3.1, 3.2, 3.3 ],
            "max" : [ 4.1, 4.2, 4.3 ]
        },
        {
            "bufferView" : 9,
            "componentType" : 5125,
            "count" : 4,
            "type" : "SCALAR"
        },
        {
            "bufferView" : 10,
            "componentType" : 5126,
            "count" : 4,
            "type" : "VEC3",
            "min" : [ 5.1, 5.2, 5.3 ],
            "max" : [ 8.1, 8.2, 8.3 ]
        },
        {
            "bufferView" : 11,
            "componentType" : 5125,
            "count" : 4,
            "type" : "SCALAR"
        }
    ],
    "asset" : {
        "generator" : "Jonathan Hale <squareys@googlemail.com>",
        "version" : "2.0"
    },
    "bufferViews" : [
        {
            "name" : "Points - Vertices",
            "buffer" : 0,
            "byteLength" : 36,
            "byteOffset" : 0
        },
        {
            "name" : "Points - Indices",
            "buffer" : 0,
            "byteLength" : 3,
            "byteOffset" : 36
        },
        {
            "name" : "Lines - Vertices",
            "buffer" : 0,
            "byteLength" : 48,
            "byteOffset" : 40
        },
        {
            "name" : "Lines - Indices",
            "buffer" : 0,
            "byteLength" : 8,
            "byteOffset" : 88
        },
        {
            "name" : "Line Loop - Vertices",
            "buffer" : 0,
            "byteLength" : 36,
            "byteOffset" : 96
        },
        {
            "name" : "Line Loop - Indices",
            "buffer" : 0,
            "byteLength" : 8,
            "byteOffset" : 132
        },
        {
            "name" : "Line Strip - Vertices",
            "buffer" : 0,
            "byteLength" : 36,
            "byteOffset" : 140
        },
        {
            "name" : "Line Strip - Indices",
            "buffer" : 0,
            "byteLength" : 12,
            "byteOffset" : 176
        },
        {
            "name" : "Triangle Strip - Vertices",
            "buffer" : 0,
            "byteLength" : 48,
            "byteOffset" : 188
        },
        {
            "name" : "Triangle Strip - Indices",
            "buffer" : 0,
            "byteLength" : 16,
            "byteOffset" : 236
        },
        {
            "name" : "Triangle Fan - Vertices",
            "buffer" : 0,
            "byteLength" : 48,
            "byteOffset" : 252
        },
        {
            "name" : "Triangle Fan - Indices",
            "buffer" : 0,
            "byteLength" : 16,
            "byteOffset" : 300
        }
    ],
    "buffers" : [
        {
            "byteLength" : 316,
            "uri" : "mesh-primitives.bin"
        }
    ],
    "meshes" : [
        {
            "name" : "Points",
            "primitives" : [
                {
                    "mode" : 0,
                    "attributes" : {
                        "POSITION" : 0
                    },
                    "indices" : 1
                }
            ]
        },
        {
            "name" : "Lines",
            "primitives" : [
                {
                    "mode" : 1,
                    "attributes" : {
                        "POSITION" : 2
                    },
                    "indices" : 3
                }
            ]
        },
        {
            "name" : "Line Loop",
            "primitives" : [
                {
                    "mode" : 2,
                    "attributes" : {
                        "POSITION" : 4
                    },
                    "indices" : 5
                }
            ]
        },
        {
            "name" : "Line Strip",
            "primitives" : [
                {
                    "mode" : 3,
                    "attributes" : {
                        "POSITION" : 6
                    },
                    "indices" : 7
                }
            ]
        },
        {
            "name" : "Triangle Strip",
            "primitives" : [
                {
                    "mode" : 5,
                    "attributes" : {
                        "POSITION" : 8
                    },
                    "indices" : 9
                }
            ]
        },
        {
            "name" : "Triangle Fan",
            "primitives" : [
                {
                    "mode" : 6,
                    "attributes" : {
                        "POSITION" : 10
                    },
                    "indices" : 11
                }
            ]
        }
    ]
}
