{
    "accessors" : [
        {
            "bufferView" : 0,
            "componentType" : 5121,
            "count" : 0,
            "max" : [
                2
            ],
            "min" : [
                0
            ],
            "type" : "SCALAR"
        },
        {
            "bufferView" : 1,
            "componentType" : 5126,
            "count" : 0,
            "max" : [
                0.6856166124343872,
                1.0624043941497803,
                0.291010320186615
            ],
            "min" : [
                -0.5848886370658875,
                -1.0295608043670654,
                -0.2770037055015564
            ],
            "type" : "VEC3"
        }
    ],
    "asset" : {
        "generator" : "Jonathan Hale <squareys@googlemail.com>",
        "version" : "2.0"
    },
    "bufferViews" : [
        {
            "buffer" : 0,
            "byteLength" : 0,
            "byteOffset" : 0,
            "target" : 34963
        },
        {
            "buffer" : 0,
            "byteLength" : 0,
            "byteStride" : 24,
            "byteOffset" : 4,
            "target" : 34962
        }
    ],
    "buffers" : [
        {
            "byteLength" : 76,
            "uri" : "mesh.bin"
        }
    ],
    "meshes" : [
        {
            "primitives" : [
                {
                    "attributes" : {
                        "POSITION" : 1
                    },
                    "indices" : 0
                }
            ]
        }
    ]
}
